<?xml version="1.0" standalone="no"?>
<!DOCTYPE svg PUBLIC "-//W3C//DTD SVG 20010904//EN"
 "http://www.w3.org/TR/2001/REC-SVG-20010904/DTD/svg10.dtd">
<svg version="1.0" xmlns="http://www.w3.org/2000/svg"
 width="100.000000pt" height="100.000000pt" viewBox="0 0 100.000000 100.000000"
 preserveAspectRatio="xMidYMid meet">
<metadata>
Created by potrace 1.16, written by Peter Selinger 2001-2019
</metadata>
<g transform="translate(0.000000,100.000000) scale(0.100000,-0.100000)"
fill="#000000" stroke="none">
<path d="M434 567 c-3 -8 -4 -39 -2 -68 l3 -54 54 -3 c75 -4 101 11 31 18
l-55 5 -3 43 -3 42 70 0 70 0 3 -52 c3 -55 17 -69 56 -53 15 6 15 8 -3 15 -16
5 -21 19 -25 61 l-5 54 -93 3 c-72 2 -94 0 -98 -11z"/>
</g>
</svg>